/* XPM */
static char *_130c7a7cb7c4c57fa93228e26ba8adf4apoc4AoDMzlddaq[] = {
/* columns rows colors chars-per-pixel */
"81 86 162 2 ",
"   c None",
".  c #000000",
"X  c #090701",
"o  c #000F0D",
"O  c #160000",
"+  c #1C0000",
"@  c #110B03",
"#  c #1E160E",
"$  c #2C0000",
"%  c #240D09",
"&  c #340000",
"*  c #3B0000",
"=  c #3D0B00",
"-  c #261A07",
";  c #241708",
":  c #23190D",
">  c #2C1E0D",
",  c #2C1208",
"<  c #231610",
"1  c #251B11",
"2  c #2E200E",
"3  c #30210F",
"4  c #2D2113",
"5  c #2B2118",
"6  c #332415",
"7  c #3A2A1C",
"8  c #35281C",
"9  c #3B2D20",
"0  c #233124",
"q  c #213B2B",
"w  c #313527",
"e  c #3C3523",
"r  c #333927",
"t  c #450000",
"y  c #4D1608",
"u  c #4E1B01",
"i  c #740000",
"p  c #750900",
"a  c #492304",
"s  c #53290C",
"d  c #592B0B",
"f  c #472C1F",
"g  c #562B10",
"h  c #5B2E12",
"j  c #5D2D19",
"k  c #423016",
"l  c #59351F",
"z  c #7B290F",
"x  c #603013",
"c  c #6B361D",
"v  c #433324",
"b  c #40392B",
"n  c #4D3B2A",
"m  c #4B3626",
"M  c #523F2C",
"N  c #364032",
"B  c #58422E",
"V  c #5E4A35",
"C  c #45543E",
"Z  c #6C492D",
"A  c #614833",
"S  c #72543B",
"D  c #77593E",
"F  c #6B5D44",
"G  c #7B5C40",
"H  c #775D42",
"J  c #476D54",
"K  c #79664A",
"L  c #7B7759",
"P  c #8D441F",
"I  c #87462C",
"U  c #914B31",
"Y  c #9B4E33",
"T  c #82543B",
"R  c #9A5036",
"E  c #A8583C",
"W  c #B05C3F",
"Q  c #AF5C41",
"!  c #B35D41",
"~  c #826246",
"^  c #8A6545",
"/  c #8D6B4A",
"(  c #90694A",
")  c #9B6241",
"_  c #97714E",
"`  c #897757",
"'  c #977453",
"]  c #9B7452",
"[  c #957B5A",
"{  c #B46144",
"}  c #BB6346",
"|  c #BF6548",
" . c #A07754",
".. c #A27A55",
"X. c #A77E58",
"o. c #AA7F59",
"O. c #C5684A",
"+. c #C8694A",
"@. c #598566",
"#. c #489C7B",
"$. c #658768",
"%. c #AD825B",
"&. c #958D6A",
"*. c #849470",
"=. c #929E77",
"-. c #AB8660",
";. c #AE8962",
":. c #B38A61",
">. c #B98E63",
",. c #BE9266",
"<. c #BA966B",
"1. c #BE9A6F",
"2. c #BEA077",
"3. c #CE9967",
"4. c #C69D6F",
"5. c #CC9D6C",
"6. c #C09366",
"7. c #D29E6C",
"8. c #CFA171",
"9. c #D3A877",
"0. c #D9A976",
"q. c #DBAE7A",
"w. c #D5A674",
"e. c #DFB07A",
"r. c #E0AD78",
"t. c #E6B37D",
"y. c #E8B57F",
"u. c #F3B87E",
"i. c #7EAF87",
"p. c #7AFDCA",
"a. c #8EBD92",
"s. c #C9AF83",
"d. c #C1AD81",
"f. c #C9B183",
"g. c #D7B485",
"h. c #DCB481",
"j. c #D7B887",
"k. c #D5B98A",
"l. c #E3B680",
"z. c #E6BC87",
"x. c #EEBD83",
"c. c #F3BB82",
"v. c #91D4A7",
"b. c #DDC291",
"n. c #EDC48E",
"m. c #E5C28D",
"M. c #F4C187",
"N. c #F8C286",
"B. c #FAC68A",
"V. c #FFCA8E",
"C. c #E2C693",
"Z. c #E9C590",
"A. c #EFC992",
"S. c #E1CB98",
"D. c #F7CB92",
"F. c #F1D39D",
"G. c #FAD59C",
"H. c #FEDA9E",
"J. c #F5DCA5",
"K. c #FBDCA3",
"L. c #F3DEA8",
"P. c #FFE1A3",
/* pixels */
"                                                                                                                                                                  ",
"                                                                                                                                                                  ",
"                                                                                                                                                                  ",
"                                                                                                                                                                  ",
"                                                                                                                                                                  ",
"                                                                                                                                                                  ",
"                                                                                                                                                                  ",
"                                                                                                                                                                  ",
"                                                                                                                                                                  ",
"                                                                                                                                                                  ",
"                                                                                                                                                                  ",
"                                                                                                                                                                  ",
"                                                                                                                                                                  ",
"                                                                                                                                                                  ",
"                                                                                                                                                                  ",
"                                                                                                                                                                  ",
"                                                                                                                                                                  ",
"                                                                                                                                                                  ",
"                                                                                                                                                                  ",
"                                                                                                                                                                  ",
"                                                                                                                                                                  ",
"                                                                                                                                                                  ",
"                                                                                                                                                                  ",
"                                                                                                                                                                  ",
"                                                                                                                                                                  ",
"                                                                                                                                                                  ",
"                                                                                                                                                                  ",
"                                                                                                                                                                  ",
"                                                                                                                                                                  ",
"                                                                                                                                                                  ",
"                                                                                                                                                                  ",
"                                                        g.<.k.b.S.                                                                                                ",
"                                            7         5.H.j.-.H.K.                                                                                                ",
"                                              7         >.1.h.N.3.    n 6                                                                                         ",
"                                              g x       b.` p ) 0.  . .                                                                                           ",
"                                              d h n     F.` i W c.q.Z t.  b.m.u.q.C.                                                                              ",
"                                            ! U   . v f.A.[ . T g.q.9.9.%.        ;.C.      B.,.                                                                  ",
"                                            } {     J.Z.>.8.>.<.4.n.J.2.            ;.l.N.0.w.%.                                                                  ",
"                                            } }   r.q.z.K.h.w.7.n.g.! }                 :.X.(                                                                     ",
"                                          ! +.R a u . L d...[ F.s.y z W |                                                                                         ",
"                                          ! O.U d d l % . . F &.b = k c W }                                                                                       ",
"                                          ! { I s     v M M , . 7 n f   c W !                                                                                     ",
"                                            s h         5 w n n m e r     I }                                                                                     ",
"                                                        + $ , e q O .       }                                                                                     ",
"                                                        [ &.0 . t C @.      }                                                                                     ",
"                                                      . K a./ J *.=.a.    | E                                                                                     ",
"                                                      S V N P v.p.L * F   Y U                                                                                     ",
"                                                    x.y.q.^ * $.#.0 j ]                                                                                           ",
"                                                  N.H.K.G.t.G . & < H X.                                                                                          ",
"                                                B.P.L.P.J.M.( o e 5 S ....                                                                                        ",
"                                                B.L.L.L.D.7.~ 1 6 # S  .o...                                                                                      ",
"                                                P.L.P.F.M.X.G 8 - X S ..] ..                                                                                      ",
"                                              c.K.J.F.B.6. .^ 1 3 @ S ..] o._                                                                                     ",
"                                              ,.c.V.N.6.] %./ : > X S  .]  .~                                                                                     ",
"                                              ] >.5.,.]  .  H 6 3 . D ....' A                                                                                     ",
"                                              X.] ..]         7   6 M ....B 8                                                                                     ",
"                                              / _ _ ..                  M 9 v                                                                                     ",
"                                                ; -                       v 7 -                                                                                   ",
"                                                9 7                         - 3 >                                                                                 ",
"                                              v m 9 4 > > > > > > > > > > > > 3 >                                                                                 ",
"                                                  > > 2 > 2 > > > 4 > > > > > >                                                                                   ",
"                                                                                                                                                                  ",
"                                                                                                                                                                  ",
"                                                                                                                                                                  ",
"                                                                                                                                                                  ",
"                                                                                                                                                                  ",
"                                                                                                                                                                  ",
"                                                                                                                                                                  ",
"                                                                                                                                                                  ",
"                                                                                                                                                                  ",
"                                                                                                                                                                  ",
"                                                                                                                                                                  ",
"                                                                                                                                                                  ",
"                                                                                                                                                                  ",
"                                                                                                                                                                  ",
"                                                                                                                                                                  ",
"                                                                                                                                                                  ",
"                                                                                                                                                                  ",
"                                                                                                                                                                  ",
"                                                                                                                                                                  ",
"                                                                                                                                                                  ",
"                                                                                                                                                                  ",
"                                                                                                                                                                  ",
"                                                                                                                                                                  ",
"                                                                                                                                                                  ",
"                                                                                                                                                                  "
};
