/* XPM */
static char *_fe1a925acdf4f94ec7aaa6a317aaec8ZGUp8BwMBTG11QAP[] = {
/* columns rows colors chars-per-pixel */
"86 86 89 1 ",
"  c #BFB19D",
". c #C0AC95",
"X c #C1AF99",
"o c #C7B297",
"O c #C9B497",
"+ c #C5B39D",
"@ c #C9B69E",
"# c #CBB89F",
"$ c #C6B6A1",
"% c #C9B7A1",
"& c #C7B9A5",
"* c #CCBAA5",
"= c #C6B7A9",
"- c #C6B8A8",
"; c #CDBDAA",
": c #D1BDA6",
"> c #D1BEAA",
", c #CDBFB0",
"< c #CFC0AD",
"1 c #D3C0A6",
"2 c #D3C2AD",
"3 c #D9C6AE",
"4 c #DBC9AF",
"5 c #CFC1B1",
"6 c #D5C5B2",
"7 c #D9C6B2",
"8 c #D7C8B5",
"9 c #DBCAB5",
"0 c #D5C7B8",
"q c #D7C9B9",
"w c #DDCDBA",
"e c #DECFBB",
"r c #DACBBC",
"t c #DACBBD",
"y c #DBCCBC",
"u c #DBCDBC",
"i c #DDCFBE",
"p c #DECEBF",
"a c #DED0BC",
"s c #DFD1BC",
"d c #DFD1BD",
"f c #DDD0BE",
"g c #DFD2BE",
"h c #E1CEB7",
"j c #E0CFBA",
"k c #E1CFBB",
"l c #E1D2BB",
"z c #E0D1BC",
"x c #E2D2BD",
"c c #E2D3BD",
"v c #E1D1BE",
"b c #E1D3BE",
"n c #E2D4BF",
"m c #E2D5BF",
"M c #DBCEC0",
"N c #DDCEC0",
"B c #DDCFC1",
"V c #DECFC0",
"C c #DDD0C0",
"Z c #DFD0C0",
"A c #DED0C1",
"S c #DFD2C1",
"D c #DFD2C2",
"F c #E2D3C1",
"G c #E0D1C3",
"H c #E1D2C3",
"J c #E2D3C3",
"K c #E3D5C3",
"L c #E4D4C0",
"P c #E1D3C4",
"I c #E3D4C4",
"U c #E3D4C5",
"Y c #E2D5C5",
"T c #E4D7C4",
"R c #E5D6C5",
"E c #E4D7C5",
"W c #E5D7C7",
"Q c #E8D7C2",
"! c #E6D8C5",
"~ c #E8D9C5",
"^ c #E3D7C9",
"/ c #E5D7C8",
"( c #E6D8C9",
") c #E7D9C9",
"_ c #E7D9CB",
"` c #E7DACC",
"' c #E8DAC9",
"] c #E9DBCA",
"[ c #E9DBCB",
/* pixels */
"iDq60656wPJ06rPPRP90>8>>86798%%2DDLPPPPq<$*yDaPaavRRayDP^!!TDDyqqD__^DDiy55qwa!LDDDDyM",
"JM50i8qiJDq68DPJ976>02;>7>8V0$;8PLPPP_r<&$<DPDPvDPP_DaLTPTPnDaq6qPP_a8ia0;55aPLDaaaqyC",
"V0;,8iriDD06iRP877606*%62>9J2*qPPPP!Pi2r-*2wnaJaaR__y88anga82<<5qTPL88aa0-<5anLaaw888q",
"rr0>0arJaq0wRz86898>:*>7>7Dr0qDPPP__q*<6*-2vaaa8P!_Dq88vnL82<<<8yTQaaaTy0&55vga8Dqwyyy",
"yi0*6yaaw09Pi99r8J8%%%222j/DiVVPP/]M$*<8<;<aaaaaL_^25<8zva<;2228nDL!DDq8<-55MDaaDDDDfq",
"8r02<8va999j999q98*$%:3:7R[VMrDP!__<$*;682<whya___a<;*6az3;22<0agPaPD0<<-&-5aPTDL^D8<-",
"8rr668av87j9q9960;++%*39k]]ir0JL__q-$*28aw28hl_[!La5-*8zz2;2129zPLaaa6<&$$<0DTT^D^<&&&",
"ryr866887hi999>%*%$+@%2v~]/00rw/!D<%%*28vLiam~'^!ag3%<iv8*1222vzaTna8<<&&<-0DTTTTy<&<*",
"rrr8;67697899>%$*%%%@1DLR]C2ya!!L02<>6a8L!PT_!!LaPa<*6av62232amvLQDw6<< -<;M!Qvnf<;;<$",
"89iq;*2677997%$%%#%*#w!__^8yPPPw866868wwLLP`gfyDTTL<<8PV:27ya!Lm~ma86<&$<5qDDaav8;<<<8",
"rww;%;>3779j>%%%+*%:7R]RPzaVq6288889288D!!!P88aT!!Dqqaa62wavm!~Ln6342<$+$28DDyva<<<50f",
"qwr;*>;379yh>%%%;28wa___Lwaq*36Daww89iP!___a88DTL_Dqqy6qaL!!Lvaj827w2%+$#<aDqqnv<<6qDf",
"r82*%;289wj9>%**:iL8iR]L8Pa<;2wyaw888aL!P^w88wPT~!yq65qDL!v09w4793wz<&&&*8nLyrD86<8afa",
"r02*%*79ijr9>%>%7/69J/]Dav6<26vLDw828vvJLD8wwvT_[Lq86qDVLj26689939lw<6558D~_MqPw5<8afy",
"06>*+;7iw89j*%;rL82aL!_DL8629a^TPq22aLa^Ta88aLP!Ta86qirDv2>237934za88yqqDT~TyqPV668faw",
"80;*@;7jj9j8+%>rw68L_]LPD2q6aa^Tq6<2vnn!_y8anL!QDa80yw6Jr;>:2973amy8fq80D[[TMMDD65yayw",
"79;;;%7999P2+*8wywvR/~vLD26yaL'a*;26g~QQT88wL_!!Da8yD8ia2;<:2w33lmzhjqq8J!_!VMDVrqwaaD",
"796;%$>jawv6+2JRPa/]_vPLr08aPPP<&*22LQP!T88aPT!a8828qwVq;;2<839nznxz998avQ^LDMDDMCPLgP",
"8j6*$+:jvvv>$7JJLk//Pz_D88yLPPy--*28T!!La8wagTP2#:2276q<**2<23wnznaw999v!!nLiDDDDMDT!g",
"7k8%++>JJPj>$9JRPP[PVPviwaP!Tw-;*<88T_!gw8ggTQ0%;;230222<<8829QvnQawj9iv!nvJayMaMMDPaT",
"wv0&$$iJRLi**jJRP/Rivi89yvLPJ;*;;;2w_!!LwLgL!a$%*11628wy8qq06a!LL!a8w8DLLavw38aaDiDVTT",
"wn9+$0LJvv6$;JR!v~Rr769jiaPLq--*;22a!!!LaL!!L8+*;*13jaa8qq8qyPQ]LDw9waT!aav89w8aMDDMDa",
"wzw+2vwvjh;+*jxjL]j9679JwaPP6-;;:66i'!nnL![[a%$%::23zj868808D__~!La8wn!!aaw8zh9waa66q6",
"zn7*67789j*+*jxLLQj979JjaJLL5***>22z_!!P!_!L<+%*1219zhw88y0f![!~!PLav!nQ89wajjvva8<q6*",
"mx72*:27j9+X*hjL~vz99jJJivvR<-*;>>>v~~Q~]__v+**%;214naaDaaa^T!_T!LDP_LQa69vxavvaw222<+",
"mx9>+%:7j3+++9jxQvi99jlJjLLa;$;<>>2w_mL/]~!8-;-;:23hLgLLTT__P_P_PDyP_T_a9zxLnnaa22;**<",
"JJ9>@*:9x3X+*hvRxx79jjvLaLva;*;>267J]Q!~!!/q;;;2223nQ~!!^T_`P_PTPDLnLTP80wQmvw82;;#*%8",
"vji7@>9JJ:.%:i~L~x99zvJLaaaa6*;>>28J]~!!!!P65;56qqa~~~~~[[PDLPLDaDaLaaaa8Lmz9w8;;*;*<w",
"iiy067yJQ2++:QQ/~x9hjJJxagJw2<5<;>iP[]!L~~D60qqqyqT_[[''`Pw8f8a67878wanwraiwnw**;;;18w",
"qiGi699jJ2%%h]Q/~999vnJRDPLj62<,66aP]]!!~[w25500qy![[['~L9288889222wwDLq<8wzD2+%:2:2aw",
"iiiy89yjj7>7x]]]]99jLmJjziijr6666rDP[[!Q~L22060yDP_[_!!~J66aw862:29waa95269ma%%*:12293",
"90q999j8h979L]]]i69v~JvRjiJv82600rDD_[Q!!L888yyPP!_[L_!a928w876222wwwi6266w~8%;<22:141",
"r>789996ia8wJLLJ;29LxvjJiwj8>*60r99PRnQ!!LaawaPLDJPaaQLP63ww88687wlva69888h~<**<13;342",
"9>798966vPaJJjJ>;2P!!JJJj90>%*8r8989L_!~!LaaDDLDCiyraLL868www8w8wP!vw8wayaLL-&*<<32933",
">>78937wJvJRq27629L!xJJx9>;**>9j972rRQ!!!LaLPPaariayJva68aaaw87aa!TawaangP!y*;12216awh",
"%$>6>;9JvJLJ9:>78k~vvvRL>%::*29v9728P~~~Q!~L!Dayryw0aL82avaa89wa!^a88aaaPPP6*<<229QLva",
"$$*>;799wiv87679ivmvhjL9*%>*#2wji627nLL~]~v888yywaw68i06jhhwwww![LDa8aaLPLq<$*;22mQxwa",
"+@@:>329wvw726729vw9jJkj**>:20ivw223n~LQLLawwi9aDPr>8838z9ahw8aQ!Lg8aLPLa0<&<;*2zQx7wn",
"%%%*>:39whw2:>>>8j9kJjJ9*>39kknnz87wL!QQmLawawvvDq;>6879iwaw8a!QQn88ay8nq;**0f88xmlhnl",
"%$:%:79999h27>:>99jJ9jm7>79jQQQnJv8aTQQ[_PDwwDPP82;q889jzvlzwgL!ma88a86w8;<6af8fJlmmmn",
"@*=@>>hh9h97>>:799jvwLv6;8jx!PJJzJwwLPQ~~LDwDJPa;66080yazvzzzmQLvw868627222waqaDJRLLLL",
"@@%%:hh7jhj>>79q9JjRLvv699mRkjwjjmGiwJ~n~vwvPPPq;20yrrDazvhzQQ~xvj779227228aawDLxRRLJL",
"oo++>>>hhh777999jJvPLJa669Q987799jJiwvQ]/DPLPLy;60289yDPLmnn~[Lvw97398672wawaanDav!P_L",
".X+o>h>h9hhLjjVjjJP/R9723JJ>>207h9JJ0w~]RPLJnD060qyyyJaLvvQQ~Lvw87777i8jaavwaanaiLPPw8",
"$$**77hjjvQvzvakJJ//92228J2*:2379jxL99Q]_JvRv860qyqDDPLaL_!Lmvw9999wawCLP!awLgPaaD8222",
">7>7jjjL_~RjjJVzvPR9:>26j9*::27hjzxm9q]]PPJi80ryryyyDPL_^!vvLvw9wwwwaaPDvaaaaLTaaw6222",
"9999hvLRR~Jjj9hjvvk>*>89j>:>>7hhhLQQvG]]!J0768aaayDyLL_!!PLPawwhvanDnPTPayygLDPv68869w",
"h579hLLRmRjj997hhh2*:>jji>*>29jxzvL[JwR]i>;28iLPPJyrP~n!PvPvwDvavvaPLnLvDwnaavv82wwDaa",
",h>jkQQQQVh9jh97j>>%>7jk8>*>67vvmQl~vwRj>>>>29ivPy8wm~QRRaJwwvvyLLvvvaavvawaai8awwqirr",
",7hLJIQkh7>797997>%*>j9j9*>>7v/JLn~~vvv>>>2>9ijja68av~RLaaPaaiawvvvvwawzzw9iwwvvviwiw9",
"h,VLmJV7,7>7797>>>:>7hhj6>>7PPkjLQvz73>7>>>69wjjv8qavvmvww68wawwv8w988hjwwy8wiDvJJDwwi",
"hjjLJV93733>39>>>>>>jjjj7>>99239xmzw7267>22389jjn8899wv766228268622797873799zaiJJDaww8",
"h9jjj973>>3393>>7>>7ykm7%$%*:>3jxkhj37322267h9zlgn822az9362>2282:2321943w939zvvLJDayiy",
",hVjh,7333379>777>7yGk>+$XX+:>3kmzjh73332237jjkx!L9<7zh96222128221233399999zzzzzawDyii",
"hjjh9>3>378h3>72777j9>@%+++O::7kz9j979632773jxLm!!w67wj9622:12722333499449hzvvwvPiDyw8",
"h,9h93>7rjrr:>32>7>>>:>*%%+@:7hQzhvvj9777639xLR!!L862wz9972221222373349w9hhjvvzhwaJwrr",
"yjhjj799999>:3>3h>7>>*%@%%%@:k~m3lQQvkk793jvn~Q_~~76>7Lzjh932221333399h9hljjhzz99w8w88",
"jj9hy777777>:>>9h>>:*@@:#@%#h]x3hQ~/LPwiwvQQ~~Q_~L9009vzvww72237379wwhhwjjjmjhhww32222",
"9ht77h7h7336>>7k>%:**:@%##%>~mhhQQ]RPPw97vQR[][!]L76;8lmPvj7887994999wwhjxxxwwwh922226",
"9793y937j33>3>j7>@:%%%@O#@:x]h4xQ~~~ava8jJQ!Q~_]~a8,;6vv!Pawqiihh9hhhhzzmJzjzh992:2212",
"779hj7:3y7277993>77:::#:OOhxj39m![!aivw9vvQ~Q!/~L88<;8LJLvv6iVPPPJvvRLP_]!kv9vw91>2228",
"tjht7h777779y9>37>>>:>>>:hjxhjxmQ!!PavwavL!]!~]/867;5raPPi9r9jPPDLLvvLm!))RJvww3262226",
"kkh79y9973y>77>>>:>>:>::3hxmxJ~m!!QLLvLJv!/]!][r262;;8wvv9w99aRvPP8anLQ!]/Jkaii2;27722",
"hGt>79hh73>>>>:>>:>::>:3xQlQQm~m[[!n!vJvvR_~LJq><<>*@8avaw88wwPPPLDJR_L~_PPDwj7>>27232",
"kG7,9j997777>>>>:>>37jhJxkkQkQQ]R~~avvj9vazj972;>;;;*8vja9779vLPQDMD/_![Lagaaa1*266279",
"k9>>9kh777h77>=>>>jNJJkkJQkjQQQQ~]!vww8ijhj726>;*;:;;8vvw979zvLP!LDDPPTT!ga8qw2;688879",
"k83>t979tht>:X*>>jkGkjjQxmQQQQQQ~~vi9a8vikw2:22;*%2;;9vv9789w~Q!P!aTaTLPLwya68<;787679",
"ykk3t9y9ht7:%:>>hkkQQkJhhkxQQQIQ~mvi799vwi22:22:;*>:2vvw999jvmL~PQLDPPPLaaaa08;;2879jv",
"NNtt79j7397%=>>7GhkkQxkkjJkGGQxQ]Lij009j7*;>>>>*;:>>2jj99w8vLQ~L_LLPLgPnayf828<<wwavjv",
"ky>t9j773h7%=>>8jjJJJkkkjkkhjIQJR977607>*%*>::::%*;:3zwj98anL~~/[P!DDPPaafqq8826ywzjvz",
"7>>>9j77tj7>>>>99jQUk7hnJkj9hQJQQj72>>>%$+%>2:1::**29vjzavv!~]~]!LmLzanaafyyy86<8avazj",
",>>37jN;3tt>>3>yjjjjhhkkkky7jxGQvj7>:%%$$%*:27h798ywvhhjvP!~~~Q~nPvahwavffyyqgy58azzjh",
"7>773y7>7y7>>9>9hkhhhjGhkhh7kJQQV97>%X+%+O#7i!PPvJiij9PJmR/~~x~xnvvzavvPk9rqMMy6ij8awv",
">>>7hk937yy,,>>>>7hkkjjhk9>kkQQQjj>>>*@:>7wL!!LPiViiyP/L]!~L~~~vvvmzaja9ikirMyy60zjvjM",
"*>>9kxy>,37>>:=>37knkkj7hh>jQIJQj7>7079JvRPRR!IkVjiiPVLQ!!Q]Qlzzlvzjzjv69wiiyqi80wLP8w",
":>>hJG>>>3373:::>hQJkkhh>jhhjQQIj;7990qjvvLL//kwiJVia9QQ_!L_JllzxvvzvvvyvwiPDyyq6q96w9",
"*:3kQ9>>>3337:::>hkkjj97,7jjjQmk9>>y969L!LLPPJJJPVkr0wQQQQ!!vvzzjvvLvvjwjaijiqq5*5qqyy",
":>9Jy9:*>>:3k9>>3hGk99y7hhjjJxkki>>y86JmL!LTJJGGVii96iQnn__!avznxxvvzvwiawP99wM;;,iqiy",
"=>GGh7>@>>>77y>>:7Qk9jh9h9jhjkFk97>727zvLvPPIjGGkiw979vQQQ!vvvvvmvzvj99jyrjiww9,*09awy",
":>Jj97>%>>77hh>>>7kh799999jhhkkhm8>>7jv!!vvDGhjjJi00099znnDvLavvxjjjjj9998aiwi7*=;irwa",
">jjt779>>>7t779>,,kyh97h7h7kkkkhh>>>ykjQQGJhkJGjjG,,,,>jGkkkQkNGviiDDya8wi8awwq-*5M0LP",
"7hjh7hk7779tthN7>>9Gh9t79h7Nkh9kJ,999kGNQGJjNVjijG>:>>>9jjhhhNNkwiawwVVyaa8aww8-=;riai",
"9k977kNk7>77hhN7:>7jjh997thjkkk7jj9jtjkkhjQNGkGjNt:==::>9jjjkGQkwziw9zaawwaayw6--;waya",
"ykhhNkkk7379hkh7>>>tjj7h99thk9kkjjj9>jjkkhJhjNjj93=:**:7jhjhhjkkDwjjvjvwawqwwy0=,69vDw",
"hNjhkkGk97thkkhh>:>tykh7jj7yk9Nhhhk7:9hjjhj>jj;j7,:=%=*,79jhkjhkiikkPvviDvyw082*,5iwiw",
"kktjGkGhh77kht97>>:tGy9797kk9kkk9NG7777tyhjjj79j7>**+*:3hjjjhhkGviJJvwaw8qqq68;*,<wDiw"
};
